<?xml version="1.0" encoding="UTF-8"?>
<!DOCTYPE svg PUBLIC "-//W3C//DTD SVG 1.1//EN" "http://www.w3.org/Graphics/SVG/1.1/DTD/svg11.dtd">
<svg xmlns="http://www.w3.org/2000/svg" version="1.1" width="2100px" height="2100px" style="shape-rendering:geometricPrecision; text-rendering:geometricPrecision; image-rendering:optimizeQuality; fill-rule:evenodd; clip-rule:evenodd" xmlns:xlink="http://www.w3.org/1999/xlink">
<g><path style="opacity:0.96" fill="#fb6d0d" d="M 1005.5,47.5 C 1263.8,39.5425 1492.47,116.709 1691.5,279C 1897.43,454.636 2015.93,677.803 2047,948.5C 2070.03,1208.45 2004.7,1443.12 1851,1652.5C 1692.63,1857.84 1485.46,1985.68 1229.5,2036C 979.333,2078.5 745.333,2035.16 527.5,1906C 325.042,1779.35 183.208,1603.51 102,1378.5C 37.9513,1188.19 29.9513,995.523 78,800.5C 140.495,567.519 268.328,379.686 461.5,237C 624.014,120.962 805.347,57.7952 1005.5,47.5 Z M 1044.5,75.5 C 1285,77.477 1497,154.977 1680.5,308C 1858.45,462.302 1968.28,656.135 2010,889.5C 2049.33,1148.23 1996.33,1385.9 1851,1602.5C 1703.81,1810.11 1505.64,1942.94 1256.5,2001C 1020.07,2049.56 795.405,2017.22 582.5,1904C 375.304,1787.46 227.804,1618.63 140,1397.5C 54,1165.5 54,933.5 140,701.5C 219.707,499.142 351.207,339.642 534.5,223C 690.821,126.916 860.821,77.7492 1044.5,75.5 Z"/></g>
<g><path style="opacity:0.995" fill="#fb6e10" d="M 1132.5,308.5 C 1223.69,391.21 1284.03,492.877 1313.5,613.5C 1313.5,637.5 1313.5,661.5 1313.5,685.5C 1288.5,685.333 1263.5,685.5 1238.5,686C 1237.29,687.376 1235.96,688.542 1234.5,689.5C 1213.73,535.043 1139.07,414.543 1010.5,328C 997.6,320.723 984.933,313.223 972.5,305.5C 1025.95,300.79 1079.28,301.79 1132.5,308.5 Z"/></g>
<g><path style="opacity:0.997" fill="#fb7116" d="M 972.5,305.5 C 984.933,313.223 997.6,320.723 1010.5,328C 1139.07,414.543 1213.73,535.043 1234.5,689.5C 1234.33,704.504 1234.5,719.504 1235,734.5C 1236.04,735.373 1236.88,736.373 1237.5,737.5C 1236.66,898.491 1175.33,1030.32 1053.5,1133C 1035.11,1146.52 1016.44,1159.52 997.5,1172C 995.975,1173.01 994.308,1173.51 992.5,1173.5C 982.246,1167.25 972.246,1160.58 962.5,1153.5C 1080.85,1086.78 1157.35,987.114 1192,854.5C 1222.5,711.586 1195.17,581.586 1110,464.5C 1084.58,432.412 1055.75,403.579 1023.5,378C 997.749,359.236 970.749,342.57 942.5,328C 931.155,323.654 920.155,318.821 909.5,313.5C 930.351,309.712 951.351,307.045 972.5,305.5 Z"/></g>
<g><path style="opacity:0.987" fill="#fc6b0a" d="M 1132.5,308.5 C 1166.99,312.731 1200.99,319.397 1234.5,328.5C 1307.87,416.939 1355.37,518.272 1377,632.5C 1380.43,650.015 1382.6,667.682 1383.5,685.5C 1377.83,685.5 1372.17,685.5 1366.5,685.5C 1366.67,653.498 1366.5,621.498 1366,589.5C 1364.83,588.333 1363.67,587.167 1362.5,586C 1347.5,585.333 1332.5,585.333 1317.5,586C 1316.33,587.167 1315.17,588.333 1314,589.5C 1313.5,597.493 1313.33,605.493 1313.5,613.5C 1284.03,492.877 1223.69,391.21 1132.5,308.5 Z"/></g>
<g><path style="opacity:0.998" fill="#fb741b" d="M 909.5,313.5 C 920.155,318.821 931.155,323.654 942.5,328C 970.749,342.57 997.749,359.236 1023.5,378C 1055.75,403.579 1084.58,432.412 1110,464.5C 1195.17,581.586 1222.5,711.586 1192,854.5C 1157.35,987.114 1080.85,1086.78 962.5,1153.5C 950.197,1145.19 938.197,1136.52 926.5,1127.5C 1046.23,1065.91 1122.39,969.573 1155,838.5C 1182.72,693.141 1148.05,565.808 1051,456.5C 990.696,393.306 917.862,351.639 832.5,331.5C 857.815,324.088 883.481,318.088 909.5,313.5 Z"/></g>
<g><path style="opacity:0.994" fill="#fd6907" d="M 1234.5,328.5 C 1292.51,344.68 1347.51,367.68 1399.5,397.5C 1479.55,552.841 1503.72,716.841 1472,889.5C 1461.64,941.523 1446.14,991.856 1425.5,1040.5C 1405.86,1016.02 1386.36,991.354 1367,966.5C 1366.5,890.501 1366.33,814.501 1366.5,738.5C 1391.5,738.667 1416.5,738.5 1441.5,738C 1443,736.5 1444.5,735 1446,733.5C 1446.67,719.167 1446.67,704.833 1446,690.5C 1444.5,689 1443,687.5 1441.5,686C 1422.17,685.5 1402.84,685.333 1383.5,685.5C 1382.6,667.682 1380.43,650.015 1377,632.5C 1355.37,518.272 1307.87,416.939 1234.5,328.5 Z"/></g>
<g><path style="opacity:0.998" fill="#fb771e" d="M 832.5,331.5 C 917.862,351.639 990.696,393.306 1051,456.5C 1148.05,565.808 1182.72,693.141 1155,838.5C 1122.39,969.573 1046.23,1065.91 926.5,1127.5C 922.583,1125.59 918.917,1123.25 915.5,1120.5C 1032,1064.11 1107.5,973.11 1142,847.5C 1171.74,714.545 1145.74,594.545 1064,487.5C 998.049,407.745 913.882,358.079 811.5,338.5C 818.215,335.595 825.215,333.262 832.5,331.5 Z"/></g>
<g><path style="opacity:0.998" fill="#fb7822" d="M 811.5,338.5 C 913.882,358.079 998.049,407.745 1064,487.5C 1145.74,594.545 1171.74,714.545 1142,847.5C 1107.5,973.11 1032,1064.11 915.5,1120.5C 912.943,1118.97 910.443,1117.3 908,1115.5C 905.333,1116.83 902.667,1116.83 900,1115.5C 888.019,1127.65 875.852,1139.65 863.5,1151.5C 743.917,1185.1 630.583,1171.27 523.5,1110C 422.915,1047.54 357.915,958.376 328.5,842.5C 336.416,811.08 347.082,780.747 360.5,751.5C 365.119,869.687 412.119,966.52 501.5,1042C 600.626,1118.41 711.959,1142.74 835.5,1115C 950.972,1082.6 1034.81,1012.76 1087,905.5C 1133,799.203 1133,692.87 1087,586.5C 1030.98,473.197 941.148,402.031 817.5,373C 792.028,368.633 766.361,366.133 740.5,365.5C 763.441,354.74 787.108,345.74 811.5,338.5 Z"/></g>
<g><path style="opacity:0.998" fill="#fb7b26" d="M 740.5,365.5 C 766.361,366.133 792.028,368.633 817.5,373C 941.148,402.031 1030.98,473.197 1087,586.5C 1133,692.87 1133,799.203 1087,905.5C 1034.81,1012.76 950.972,1082.6 835.5,1115C 711.959,1142.74 600.626,1118.41 501.5,1042C 412.119,966.52 365.119,869.687 360.5,751.5C 364.018,740.598 368.685,730.264 374.5,720.5C 369.348,850.876 417.015,956.709 517.5,1038C 624.075,1114.92 740.409,1132.92 866.5,1092C 978.069,1048.37 1053.24,969.867 1092,856.5C 1124.12,744.285 1109.12,639.285 1047,541.5C 980.092,446.258 888.259,392.425 771.5,380C 751.18,378.167 730.847,378 710.5,379.5C 720.201,374.318 730.201,369.651 740.5,365.5 Z"/></g>
<g><path style="opacity:0.998" fill="#fb7d2a" d="M 374.5,720.5 C 377.475,711.883 381.475,703.883 386.5,696.5C 373.868,802.695 401.035,896.695 468,978.5C 540.222,1059.38 631.222,1101.38 741,1104.5C 862.796,1101.11 959.796,1051.45 1032,955.5C 1104.62,848.752 1118.62,734.419 1074,612.5C 1032.67,516.162 963.499,448.662 866.5,410C 808.375,389.56 748.709,383.394 687.5,391.5C 694.686,386.739 702.353,382.739 710.5,379.5C 730.847,378 751.18,378.167 771.5,380C 888.259,392.425 980.092,446.258 1047,541.5C 1109.12,639.285 1124.12,744.285 1092,856.5C 1053.24,969.867 978.069,1048.37 866.5,1092C 740.409,1132.92 624.075,1114.92 517.5,1038C 417.015,956.709 369.348,850.876 374.5,720.5 Z"/></g>
<g><path style="opacity:0.998" fill="#fb802e" d="M 386.5,696.5 C 394.157,680.51 402.824,665.177 412.5,650.5C 383.662,760.478 402.162,861.145 468,952.5C 530.454,1031.55 611.954,1076.38 712.5,1087C 820.872,1093.48 912.872,1058.65 988.5,982.5C 1057.59,907.829 1088.76,819.163 1082,716.5C 1067.23,592.333 1005.4,500.5 896.5,441C 814.609,400.646 729.609,393.146 641.5,418.5C 656.168,408.495 671.501,399.495 687.5,391.5C 748.709,383.394 808.375,389.56 866.5,410C 963.499,448.662 1032.67,516.162 1074,612.5C 1118.62,734.419 1104.62,848.752 1032,955.5C 959.796,1051.45 862.796,1101.11 741,1104.5C 631.222,1101.38 540.222,1059.38 468,978.5C 401.035,896.695 373.868,802.695 386.5,696.5 Z"/></g>
<g><path style="opacity:0.995" fill="#fd6804" d="M 1399.5,397.5 C 1556.78,487.986 1667.28,618.319 1731,788.5C 1789.91,958.538 1788.91,1128.2 1728,1297.5C 1717.49,1325.85 1704.82,1353.19 1690,1379.5C 1601.82,1266.47 1513.66,1153.47 1425.5,1040.5C 1446.14,991.856 1461.64,941.523 1472,889.5C 1503.72,716.841 1479.55,552.841 1399.5,397.5 Z"/></g>
<g><path style="opacity:0.998" fill="#fb8232" d="M 412.5,650.5 C 415.102,644.947 418.436,639.947 422.5,635.5C 386.942,751.932 405.109,858.599 477,955.5C 560.962,1054.39 668.129,1095.22 798.5,1078C 916.748,1054.03 1000.91,987.531 1051,878.5C 1091.71,775.098 1085.71,674.765 1033,577.5C 966.223,469.78 868.89,413.78 741,409.5C 700.465,409.601 661.298,416.601 623.5,430.5C 629.119,426.017 635.119,422.017 641.5,418.5C 729.609,393.146 814.609,400.646 896.5,441C 1005.4,500.5 1067.23,592.333 1082,716.5C 1088.76,819.163 1057.59,907.829 988.5,982.5C 912.872,1058.65 820.872,1093.48 712.5,1087C 611.954,1076.38 530.454,1031.55 468,952.5C 402.162,861.145 383.662,760.478 412.5,650.5 Z"/></g>
<g><path style="opacity:0.997" fill="#fb8435" d="M 422.5,635.5 C 434.944,615.609 448.61,596.609 463.5,578.5C 418.876,656.645 407.043,739.978 428,828.5C 459.839,936.328 528.005,1010.49 632.5,1051C 717.298,1079.49 800.298,1075.15 881.5,1038C 978.541,987.958 1038.04,909.458 1060,802.5C 1074.92,702.696 1050.92,614.029 988,536.5C 905.498,445.213 802.998,409.046 680.5,428C 640.846,436.303 603.846,450.803 569.5,471.5C 586.384,456.388 604.384,442.722 623.5,430.5C 661.298,416.601 700.465,409.601 741,409.5C 868.89,413.78 966.223,469.78 1033,577.5C 1085.71,674.765 1091.71,775.098 1051,878.5C 1000.91,987.531 916.748,1054.03 798.5,1078C 668.129,1095.22 560.962,1054.39 477,955.5C 405.109,858.599 386.942,751.932 422.5,635.5 Z"/></g>
<g><path style="opacity:0.997" fill="#fb883b" d="M 463.5,578.5 C 494.818,538.849 530.151,503.182 569.5,471.5C 603.846,450.803 640.846,436.303 680.5,428C 802.998,409.046 905.498,445.213 988,536.5C 1050.92,614.029 1074.92,702.696 1060,802.5C 1038.04,909.458 978.541,987.958 881.5,1038C 800.298,1075.15 717.298,1079.49 632.5,1051C 528.005,1010.49 459.839,936.328 428,828.5C 407.043,739.978 418.876,656.645 463.5,578.5 Z"/></g>
<g><path style="opacity:1" fill="#fb8b41" d="M 728.5,437.5 C 829.702,436.421 913.202,473.755 979,549.5C 1040.52,627.559 1061.52,715.892 1042,814.5C 1016.69,914.13 957.527,985.63 864.5,1029C 767.436,1067.58 673.436,1061.58 582.5,1011C 486.958,949.49 436.958,861.157 432.5,746C 436.742,631.118 486.409,543.118 581.5,482C 626.72,455.077 675.72,440.244 728.5,437.5 Z"/></g>
<g><path style="opacity:1" fill="#fc8e45" d="M 732.5,449.5 C 823.348,449.715 899.514,482.382 961,547.5C 1027.89,625.397 1050.56,715.063 1029,816.5C 1001.08,916.289 939.248,985.455 843.5,1024C 742.729,1057.14 649.396,1043.47 563.5,983C 485.171,920.94 445.504,839.44 444.5,738.5C 451.41,630.36 500.077,547.86 590.5,491C 634.41,466.016 681.743,452.183 732.5,449.5 Z"/></g>
<g><path style="opacity:1" fill="#fc9048" d="M 731.5,455.5 C 845.343,456.468 932.176,504.468 992,599.5C 1044.66,697.216 1044.66,794.883 992,892.5C 934.501,984.584 850.835,1032.58 741,1036.5C 628.98,1032.06 544.48,982.398 487.5,887.5C 437.248,790.485 438.415,694.152 491,598.5C 546.612,510.547 626.779,462.88 731.5,455.5 Z"/></g>
<g><path style="opacity:1" fill="#fc934d" d="M 726.5,463.5 C 807.589,461.473 877.589,487.64 936.5,542C 1004.12,610.522 1032.12,692.855 1020.5,789C 1000.13,895.696 939.793,969.696 839.5,1011C 760.513,1038.21 683.846,1033.21 609.5,996C 531.889,952.984 483.389,887.817 464,800.5C 447.197,694.828 477.364,605.994 554.5,534C 588.046,505.481 626.046,485.147 668.5,473C 687.764,468.666 707.098,465.5 726.5,463.5 Z"/></g>
<g><path style="opacity:1" fill="#fc9754" d="M 725.5,476.5 C 829.983,475.154 911.483,517.487 970,603.5C 1024,698.45 1024,793.45 970,888.5C 919.543,964.84 848.376,1007.01 756.5,1015C 662.234,1017.44 585.734,982.27 527,909.5C 479.39,844.473 462.723,772.139 477,692.5C 502.732,587.108 567.232,518.274 670.5,486C 677.875,484.865 685.041,483.032 692,480.5C 692.725,481.059 693.558,481.392 694.5,481.5C 704.91,479.412 715.244,477.745 725.5,476.5 Z"/></g>
<g><path style="opacity:1" fill="#fc9a5a" d="M 739.5,489.5 C 835.385,492.339 909.218,533.672 961,613.5C 1001.42,683.976 1008.42,757.643 982,834.5C 950.74,913.093 894.906,965.593 814.5,992C 723.15,1016.08 641.484,997.742 569.5,937C 498.619,868.675 472.452,785.841 491,688.5C 516.157,594.013 574.99,531.18 667.5,500C 691.202,493.418 715.202,489.918 739.5,489.5 Z"/></g>
<g><path style="opacity:1" fill="#fc9e60" d="M 728.5,500.5 C 808.614,499.466 875.114,528.133 928,586.5C 988.41,662.548 1002.08,746.214 969,837.5C 933.313,919.487 871.48,969.654 783.5,988C 691.979,1000.07 615.479,972.57 554,905.5C 500.49,838.737 484.157,763.403 505,679.5C 532.215,592.619 589.381,535.785 676.5,509C 693.823,505.322 711.157,502.489 728.5,500.5 Z"/></g>
<g><path style="opacity:1" fill="#fca367" d="M 756.5,512.5 C 841.327,521.597 904.827,562.597 947,635.5C 987.649,719.196 983.149,800.196 933.5,878.5C 882.512,948.372 813.179,981.872 725.5,979C 641.268,970.669 578.101,930.169 536,857.5C 508.548,805.129 501.214,750.129 514,692.5C 535.075,614.419 582.908,559.586 657.5,528C 689.632,516.532 722.632,511.366 756.5,512.5 Z"/></g>
<g><path style="opacity:1" fill="#fda66d" d="M 722.5,526.5 C 785.422,523.083 840.422,541.583 887.5,582C 939.57,630.503 963.737,691.336 960,764.5C 951.022,844.507 910.856,904.007 839.5,943C 760.295,978.399 684.961,972.399 613.5,925C 546.226,873.28 516.059,804.78 523,719.5C 534.479,644.645 573.313,588.479 639.5,551C 656.495,543.108 673.828,536.775 691.5,532C 701.981,530.201 712.314,528.367 722.5,526.5 Z"/></g>
<g><path style="opacity:1" fill="#fdaa73" d="M 722.5,538.5 C 794.958,534.238 854.791,559.238 902,613.5C 952.278,679.482 962.278,751.482 932,829.5C 899.951,897.631 846.784,938.464 772.5,952C 686.363,960.909 618.03,930.742 567.5,861.5C 529.194,799.112 523.027,733.445 549,664.5C 583.956,591.05 641.789,549.05 722.5,538.5 Z"/></g>
<g><path style="opacity:1" fill="#fdae7a" d="M 716.5,549.5 C 787.936,543.618 846.769,566.952 893,619.5C 942.383,684.132 951.383,754.132 920,829.5C 892.205,885.263 848.038,921.43 787.5,938C 695.446,954.499 623.613,924.666 572,848.5C 544.484,800.889 537.151,750.222 550,696.5C 569.75,629.422 612.25,583.588 677.5,559C 690.447,555.104 703.447,551.937 716.5,549.5 Z"/></g>
<g><path style="opacity:1" fill="#fdb180" d="M 724.5,559.5 C 804.75,556.567 865.25,589.233 906,657.5C 932.772,712.313 934.439,767.98 911,824.5C 883.629,879.334 840.129,914.168 780.5,929C 703.109,941.735 639.943,917.902 591,857.5C 558.308,812.114 547.641,760.781 559,703.5C 579.803,628.92 627.97,581.92 703.5,562.5C 704.167,562.833 704.833,563.167 705.5,563.5C 711.907,561.887 718.24,560.553 724.5,559.5 Z"/></g>
<g><path style="opacity:1" fill="#fdb686" d="M 727.5,572.5 C 803.942,570.621 860.442,602.954 897,669.5C 920.615,721.268 920.282,772.935 896,824.5C 859.196,889.826 803.029,921.326 727.5,919C 648.208,908.688 596.708,865.522 573,789.5C 557.791,716.447 578.291,656.28 634.5,609C 662.223,588.699 693.223,576.533 727.5,572.5 Z"/></g>
<g><path style="opacity:1" fill="#fdb98c" d="M 725.5,583.5 C 791.325,580.335 842.492,605.335 879,658.5C 906.311,705.215 910.978,754.215 893,805.5C 867.35,865.323 821.85,899.489 756.5,908C 684.533,911.44 631.033,882.273 596,820.5C 567.686,758.148 573.52,699.481 613.5,644.5C 642.72,609.517 680.054,589.184 725.5,583.5 Z"/></g>
<g><path style="opacity:0.993" fill="#fefefe" d="M 667.5,1355.5 C 606.794,1333.41 545.96,1311.41 485,1289.5C 491.605,1366.65 499.438,1443.65 508.5,1520.5C 490.37,1539.8 472.037,1558.96 453.5,1578C 461.032,1580.14 467.199,1578.31 472,1572.5C 615.136,1423.03 758.636,1273.86 902.5,1125C 903.5,1124.33 904.5,1124.33 905.5,1125C 960.5,1163.5 1015.5,1202 1070.5,1240.5C 1061.49,1251.51 1052.15,1262.17 1042.5,1272.5C 996.518,1237.36 950.351,1202.36 904,1167.5C 878.869,1282.69 854.369,1398.03 830.5,1513.5C 812.08,1535.43 793.08,1556.93 773.5,1578C 777.833,1578.67 782.167,1578.67 786.5,1578C 964.795,1374.7 1143.46,1171.7 1322.5,969C 1321.17,889.667 1321.17,810.333 1322.5,731C 1295.84,730.5 1269.17,730.333 1242.5,730.5C 1242.5,718.167 1242.5,705.833 1242.5,693.5C 1269.17,693.667 1295.84,693.5 1322.5,693C 1321.5,659.907 1321.17,626.74 1321.5,593.5C 1333.83,593.5 1346.17,593.5 1358.5,593.5C 1358.5,626.833 1358.5,660.167 1358.5,693.5C 1384.83,693.5 1411.17,693.5 1437.5,693.5C 1437.5,705.833 1437.5,718.167 1437.5,730.5C 1411.17,730.5 1384.83,730.5 1358.5,730.5C 1358.33,810.834 1358.5,891.167 1359,971.5C 1518.67,1175.17 1678.33,1378.83 1838,1582.5C 1838.48,1583.45 1838.65,1584.45 1838.5,1585.5C 1786.5,1585.5 1734.5,1585.5 1682.5,1585.5C 1682.5,1613.17 1682.5,1640.83 1682.5,1668.5C 1252.83,1668.5 823.167,1668.5 393.5,1668.5C 393.5,1639.17 393.5,1609.83 393.5,1580.5C 341.835,1581.22 290.168,1581.89 238.5,1582.5C 238.491,1580.69 238.991,1579.02 240,1577.5C 318.167,1467.33 396.333,1357.17 474.5,1247C 548.842,1271.34 623.009,1296.5 697,1322.5C 698.257,1322.85 698.591,1323.52 698,1324.5C 687.604,1334.73 677.437,1345.06 667.5,1355.5 Z"/></g>
<g><path style="opacity:1" fill="#fdbd92" d="M 726.5,594.5 C 790.979,592.267 840.146,618.267 874,672.5C 902.616,731.038 898.116,786.705 860.5,839.5C 839.684,865.123 813.351,882.623 781.5,892C 710.75,907.335 654.584,885.835 613,827.5C 583.598,776.217 582.265,724.217 609,671.5C 635.732,627.336 674.898,601.669 726.5,594.5 Z"/></g>
<g><path style="opacity:1" fill="#fdc199" d="M 726.5,606.5 C 784.965,603.371 830.298,626.204 862.5,675C 862.6,677.355 863.767,679.522 866,681.5C 866.898,685.795 868.731,689.628 871.5,693C 871.167,693.333 870.833,693.667 870.5,694C 872.375,696.943 873.875,700.11 875,703.5C 889.803,762.141 875.97,811.641 833.5,852C 817.774,864.096 800.941,873.596 783,880.5C 782.586,880.043 782.086,879.709 781.5,879.5C 776.65,881.506 771.65,883.006 766.5,884C 698.484,892.403 647.984,866.903 615,807.5C 592.528,754.709 597.861,705.043 631,658.5C 656.58,628.808 688.413,611.475 726.5,606.5 Z"/></g>
<g><path style="opacity:1" fill="#fdc59f" d="M 731.5,620.5 C 784.899,618.838 825.066,640.838 852,686.5C 875.187,735.518 870.854,781.851 839,825.5C 800.968,867.451 754.468,880.618 699.5,865C 673.238,855.109 652.071,838.609 636,815.5C 608.668,769.179 608.668,722.846 636,676.5C 659.304,643.377 691.138,624.71 731.5,620.5 Z"/></g>
<g><path style="opacity:1" fill="#fec8a5" d="M 737.5,633.5 C 791.528,634.751 828.362,660.418 848,710.5C 861.929,762.226 848.096,804.726 806.5,838C 773.389,859.451 738.056,863.784 700.5,851C 654.994,830.917 630.994,795.917 628.5,746C 630.418,700.148 651.418,666.481 691.5,645C 706.167,638 721.5,634.167 737.5,633.5 Z"/></g>
<g><path style="opacity:1" fill="#feccab" d="M 730.5,645.5 C 785.603,644.141 821.77,669.474 839,721.5C 847.821,770.103 831.655,807.603 790.5,834C 751.287,853.16 713.954,850.16 678.5,825C 644.783,795.78 633.617,759.28 645,715.5C 659.872,675.486 688.372,652.152 730.5,645.5 Z"/></g>
<g><path style="opacity:1" fill="#fed0b1" d="M 734.5,659.5 C 780.644,659.988 810.811,681.988 825,725.5C 832.112,770.546 815.945,803.713 776.5,825C 735.562,839.816 700.895,830.982 672.5,798.5C 647.868,761.896 648.701,725.896 675,690.5C 691.028,672.572 710.861,662.238 734.5,659.5 Z"/></g>
<g><path style="opacity:1" fill="#fed4b9" d="M 730.5,675.5 C 765.215,672.937 790.715,686.937 807,717.5C 819.843,758.433 808.01,789.599 771.5,811C 736.032,824.271 706.532,816.437 683,787.5C 670.905,769.211 667.238,749.211 672,727.5C 679.527,704.421 694.36,688.254 716.5,679C 721.184,677.347 725.85,676.181 730.5,675.5 Z"/></g>
<g><path style="opacity:1" fill="#fed8be" d="M 732.5,691.5 C 761.245,689.336 781.412,701.336 793,727.5C 800.729,760.202 789.562,783.702 759.5,798C 727.85,805.752 704.683,795.252 690,766.5C 680.638,735.093 690.138,711.593 718.5,696C 723.373,694.763 728.04,693.263 732.5,691.5 Z"/></g>
<g><path style="opacity:1" fill="#ffdcc5" d="M 731.5,707.5 C 755.004,704.827 770.837,714.493 779,736.5C 782.415,760.085 772.915,775.918 750.5,784C 727.811,787.635 712.311,778.801 704,757.5C 699.588,733.16 708.754,716.494 731.5,707.5 Z"/></g>
<g><path style="opacity:0.991" fill="#fc6e10" d="M 1237.5,737.5 C 1262.76,738.49 1288.09,738.823 1313.5,738.5C 1313.67,814.167 1313.5,889.834 1313,965.5C 1234.5,1054.67 1156,1143.83 1077.5,1233C 1048.94,1213.7 1020.61,1193.87 992.5,1173.5C 994.308,1173.51 995.975,1173.01 997.5,1172C 1016.44,1159.52 1035.11,1146.52 1053.5,1133C 1175.33,1030.32 1236.66,898.491 1237.5,737.5 Z"/></g>
<g><path style="opacity:0.996" fill="#fb741b" d="M 328.5,842.5 C 357.915,958.376 422.915,1047.54 523.5,1110C 630.583,1171.27 743.917,1185.1 863.5,1151.5C 846.836,1169.5 829.836,1187.16 812.5,1204.5C 670.725,1223.14 545.725,1187.31 437.5,1097C 382.077,1047.74 340.077,988.912 311.5,920.5C 315.302,893.975 320.968,867.975 328.5,842.5 Z"/></g>
<g><path style="opacity:0.996" fill="#fb7116" d="M 311.5,920.5 C 340.077,988.912 382.077,1047.74 437.5,1097C 545.725,1187.31 670.725,1223.14 812.5,1204.5C 800.838,1217.5 788.838,1230.16 776.5,1242.5C 602.834,1249.37 461.001,1186.7 351,1054.5C 343.88,1043.87 336.38,1033.53 328.5,1023.5C 321.302,1012.43 314.635,1001.1 308.5,989.5C 306.815,987.429 305.148,985.429 303.5,983.5C 304.976,962.212 307.643,941.212 311.5,920.5 Z"/></g>
<g><path style="opacity:0.988" fill="#fb6e10" d="M 303.5,983.5 C 305.148,985.429 306.815,987.429 308.5,989.5C 314.635,1001.1 321.302,1012.43 328.5,1023.5C 336.38,1033.53 343.88,1043.87 351,1054.5C 461.001,1186.7 602.834,1249.37 776.5,1242.5C 752.857,1267.48 728.857,1292.14 704.5,1316.5C 700.2,1313.67 695.533,1311.5 690.5,1310C 620.77,1286.2 551.103,1262.2 481.5,1238C 477.833,1237.33 474.167,1237.33 470.5,1238C 464.55,1244.11 459.217,1250.61 454.5,1257.5C 451.933,1256.25 449.267,1255.08 446.5,1254C 405.629,1229.75 367.962,1201.42 333.5,1169C 326.022,1160.36 318.022,1152.19 309.5,1144.5C 301.443,1091.11 299.443,1037.45 303.5,983.5 Z"/></g>
<g><path style="opacity:1" fill="#9900cc" d="M 1340.5,1007.5 C 1477.52,1181.86 1614.18,1356.52 1750.5,1531.5C 1614,1532.5 1477.33,1532.83 1340.5,1532.5C 1340.5,1357.5 1340.5,1182.5 1340.5,1007.5 Z"/></g>
<g><path style="opacity:0.987" fill="#fc6b0a" d="M 309.5,1144.5 C 318.022,1152.19 326.022,1160.36 333.5,1169C 367.962,1201.42 405.629,1229.75 446.5,1254C 449.267,1255.08 451.933,1256.25 454.5,1257.5C 429.606,1293.74 404.273,1329.74 378.5,1365.5C 342.991,1295.81 319.991,1222.15 309.5,1144.5 Z"/></g>
<g><path style="opacity:1" fill="#9905cc" d="M 1042.5,1272.5 C 972.059,1353.06 901.392,1433.39 830.5,1513.5C 854.369,1398.03 878.869,1282.69 904,1167.5C 950.351,1202.36 996.518,1237.36 1042.5,1272.5 Z"/></g>
<g><path style="opacity:1" fill="#9904cc" d="M 667.5,1355.5 C 614.836,1410.83 561.836,1465.83 508.5,1520.5C 499.438,1443.65 491.605,1366.65 485,1289.5C 545.96,1311.41 606.794,1333.41 667.5,1355.5 Z"/></g>
<g><path style="opacity:1" fill="#ae36d6" d="M 1340.5,1007.5 C 1340.5,1182.5 1340.5,1357.5 1340.5,1532.5C 1477.33,1532.83 1614,1532.5 1750.5,1531.5C 1751.17,1531.5 1751.5,1531.83 1751.5,1532.5C 1614.33,1533.5 1477,1533.83 1339.5,1533.5C 1339.17,1357.43 1339.5,1182.1 1340.5,1007.5 Z"/></g>
<g><path style="opacity:1" fill="#f8effb" d="M 1751.5,1532.5 C 1752.04,1532.56 1752.38,1532.89 1752.5,1533.5C 1614.67,1534.83 1477,1534.83 1339.5,1533.5C 1477,1533.83 1614.33,1533.5 1751.5,1532.5 Z"/></g>
</svg>
